<svg width="42" height="42" viewBox="0 0 42 42" fill="none" xmlns="http://www.w3.org/2000/svg">
<path d="M21.0013 7C17.1991 7 16.7219 7.01663 15.2286 7.08458C13.7382 7.15284 12.7208 7.3888 11.8306 7.73501C10.9098 8.09259 10.1287 8.57093 9.35057 9.3494C8.57181 10.1276 8.09347 10.9087 7.73472 11.8292C7.38763 12.7196 7.15138 13.7373 7.08429 15.2271C7.0175 16.7205 7 17.1979 7 21.0001C7 24.8024 7.01692 25.2781 7.08458 26.7714C7.15313 28.2618 7.38909 29.2792 7.73501 30.1694C8.09289 31.0902 8.57122 31.8713 9.34969 32.6494C10.1276 33.4282 10.9087 33.9077 11.8289 34.2653C12.7196 34.6115 13.7373 34.8475 15.2274 34.9157C16.7208 34.9837 17.1976 35.0003 20.9996 35.0003C24.8021 35.0003 25.2778 34.9837 26.7711 34.9157C28.2616 34.8475 29.2801 34.6115 30.1708 34.2653C31.0913 33.9077 31.8713 33.4282 32.6491 32.6494C33.4279 31.8713 33.9062 31.0902 34.265 30.1697C34.6092 29.2792 34.8454 28.2616 34.9154 26.7717C34.9825 25.2784 35 24.8024 35 21.0001C35 17.1979 34.9825 16.7208 34.9154 15.2274C34.8454 13.737 34.6092 12.7196 34.265 11.8295C33.9062 10.9087 33.4279 10.1276 32.6491 9.3494C31.8704 8.57064 31.0916 8.0923 30.17 7.73501C29.2774 7.3888 28.2595 7.15284 26.7691 7.08458C25.2757 7.01663 24.8003 7 20.9969 7H21.0013ZM19.7454 9.52294C20.1181 9.52236 20.5341 9.52294 21.0013 9.52294C24.7393 9.52294 25.1824 9.53636 26.6585 9.60344C28.0236 9.66586 28.7644 9.89395 29.2579 10.0856C29.9112 10.3393 30.377 10.6427 30.8667 11.1327C31.3568 11.6227 31.6601 12.0893 31.9144 12.7427C32.1061 13.2356 32.3344 13.9764 32.3966 15.3415C32.4636 16.8173 32.4782 17.2606 32.4782 20.9969C32.4782 24.7332 32.4636 25.1766 32.3966 26.6524C32.3341 28.0174 32.1061 28.7583 31.9144 29.2512C31.6607 29.9045 31.3568 30.3697 30.8667 30.8595C30.3767 31.3495 29.9115 31.6528 29.2579 31.9065C28.765 32.0991 28.0236 32.3266 26.6585 32.389C25.1827 32.4561 24.7393 32.4706 21.0013 32.4706C17.263 32.4706 16.8199 32.4561 15.3441 32.389C13.9791 32.326 13.2382 32.0979 12.7444 31.9063C12.0911 31.6525 11.6244 31.3492 11.1344 30.8592C10.6444 30.3692 10.3411 29.9037 10.0867 29.25C9.89511 28.7571 9.66674 28.0163 9.60461 26.6512C9.53753 25.1754 9.52411 24.7321 9.52411 20.9934C9.52411 17.2548 9.53753 16.8138 9.60461 15.338C9.66703 13.9729 9.89511 13.2321 10.0867 12.7386C10.3405 12.0853 10.6444 11.6186 11.1344 11.1286C11.6244 10.6386 12.0911 10.3352 12.7444 10.0809C13.2379 9.8884 13.9791 9.6609 15.3441 9.59819C16.6356 9.53986 17.1361 9.52236 19.7454 9.51944V9.52294ZM28.4745 11.8475C27.547 11.8475 26.7945 12.5992 26.7945 13.527C26.7945 14.4545 27.547 15.207 28.4745 15.207C29.402 15.207 30.1545 14.4545 30.1545 13.527C30.1545 12.5995 29.402 11.847 28.4745 11.847V11.8475ZM21.0013 13.8105C17.0308 13.8105 13.8117 17.0296 13.8117 21.0001C13.8117 24.9706 17.0308 28.1883 21.0013 28.1883C24.9718 28.1883 28.1898 24.9706 28.1898 21.0001C28.1898 17.0296 24.9715 13.8105 21.001 13.8105H21.0013ZM21.0013 16.3334C23.5785 16.3334 25.668 18.4227 25.668 21.0001C25.668 23.5773 23.5785 25.6669 21.0013 25.6669C18.4238 25.6669 16.3346 23.5773 16.3346 21.0001C16.3346 18.4227 18.4238 16.3334 21.0013 16.3334Z" fill="#29005F"/>
</svg>
