<svg width="240" height="105" viewBox="0 0 240 105" fill="none" xmlns="http://www.w3.org/2000/svg">
<path d="M17.5096 43.0399H21.091V67.1458H17.5096V56.0226H6.61031V67.1458H3.02887V43.0399H6.61031V52.4412H17.5096V43.0399Z" fill="white"/>
<path d="M32.5652 67.5934C30.9811 67.5934 29.5348 67.1859 28.2262 66.3709C26.9291 65.5559 25.8902 64.4654 25.1097 63.0994C24.3406 61.7219 23.956 60.201 23.956 58.5365C23.956 57.2738 24.1799 56.0972 24.6275 55.0067C25.0752 53.9048 25.6893 52.9405 26.4699 52.114C27.262 51.2761 28.1803 50.6218 29.2249 50.1511C30.2694 49.6805 31.3829 49.4452 32.5652 49.4452C33.8853 49.4452 35.0964 49.7207 36.1983 50.2717C37.3003 50.8112 38.2416 51.5631 39.0222 52.5273C39.8027 53.48 40.3767 54.582 40.744 55.8332C41.1113 57.073 41.2204 58.393 41.0712 59.7935H27.7957C27.945 60.5855 28.2319 61.303 28.6567 61.9458C29.0929 62.5771 29.6438 63.0765 30.3096 63.4438C30.9869 63.8111 31.7388 64.0005 32.5652 64.012C33.4376 64.012 34.2297 63.7939 34.9414 63.3577C35.6646 62.9215 36.2557 62.3188 36.7149 61.5498L40.348 62.3935C39.6592 63.9202 38.6204 65.1714 37.2314 66.1471C35.8425 67.1113 34.2871 67.5934 32.5652 67.5934ZM27.6752 57.0557H37.4553C37.3405 56.2293 37.0478 55.4831 36.5771 54.8173C36.118 54.1401 35.5383 53.6063 34.8381 53.216C34.1493 52.8143 33.3917 52.6134 32.5652 52.6134C31.7502 52.6134 30.9926 52.8085 30.2924 53.1988C29.6037 53.5891 29.0297 54.1229 28.5706 54.8001C28.1229 55.4659 27.8244 56.2178 27.6752 57.0557Z" fill="white"/>
<path d="M59.4193 56.3498V67.1458H55.8379V57.2279C55.8379 56.4588 55.6485 55.7586 55.2696 55.1273C54.9023 54.4959 54.403 53.9966 53.7716 53.6293C53.1518 53.2505 52.4516 53.0611 51.671 53.0611C50.9134 53.0611 50.2189 53.2505 49.5876 53.6293C48.9562 53.9966 48.4511 54.4959 48.0723 55.1273C47.6935 55.7586 47.5041 56.4588 47.5041 57.2279V67.1458H43.9227V49.9273H47.5041V51.7525C48.101 51.0408 48.8357 50.4783 49.7081 50.065C50.5805 49.6518 51.5218 49.4452 52.5319 49.4452C53.8061 49.4452 54.9655 49.7551 56.01 50.375C57.0546 50.9948 57.8811 51.8271 58.4895 52.8717C59.1094 53.9162 59.4193 55.0756 59.4193 56.3498Z" fill="white"/>
<path d="M68.0218 67.4729C67.115 67.4155 66.2311 67.2318 65.3702 66.9219C64.5092 66.612 63.7516 66.193 63.0973 65.665C62.4545 65.1255 61.9724 64.4941 61.651 63.7709L64.6986 62.4623C64.8479 62.7723 65.1061 63.0765 65.4735 63.3749C65.8523 63.6734 66.2942 63.9202 66.7993 64.1153C67.3044 64.299 67.8324 64.3908 68.3834 64.3908C68.9229 64.3908 69.4222 64.3162 69.8814 64.167C70.352 64.0063 70.7366 63.7652 71.035 63.4438C71.3335 63.1224 71.4827 62.7378 71.4827 62.2901C71.4827 61.7851 71.3105 61.3948 70.9662 61.1193C70.6333 60.8323 70.2143 60.6142 69.7092 60.465C69.2041 60.3158 68.6991 60.1723 68.194 60.0345C67.069 59.782 66.0359 59.4376 65.0947 59.0014C64.1649 58.5537 63.4245 57.9855 62.8735 57.2968C62.3225 56.5966 62.047 55.7414 62.047 54.7312C62.047 53.6293 62.3454 52.6765 62.9424 51.873C63.5393 51.058 64.3198 50.4324 65.2841 49.9962C66.2598 49.56 67.2986 49.3419 68.4006 49.3419C69.7781 49.3419 71.0408 49.6346 72.1887 50.22C73.3366 50.8054 74.2147 51.609 74.8231 52.6306L71.982 54.318C71.8099 53.9736 71.5516 53.6637 71.2072 53.3882C70.8628 53.1127 70.4726 52.8946 70.0364 52.7339C69.6002 52.5617 69.1467 52.4642 68.6761 52.4412C68.0907 52.4182 67.5454 52.4871 67.0403 52.6478C66.5467 52.797 66.1507 53.0381 65.8523 53.371C65.5538 53.7039 65.4046 54.1286 65.4046 54.6452C65.4046 55.1502 65.5825 55.529 65.9384 55.7816C66.2942 56.0226 66.7419 56.2178 67.2814 56.367C67.8324 56.5162 68.3949 56.6827 68.9688 56.8663C69.9904 57.1877 70.9489 57.5838 71.8443 58.0544C72.7397 58.5136 73.4628 59.0818 74.0138 59.759C74.5648 60.4363 74.8288 61.2628 74.8059 62.2385C74.8059 63.3175 74.4787 64.2645 73.8244 65.0795C73.1816 65.8945 72.3436 66.5144 71.3105 66.9391C70.2774 67.3639 69.1812 67.5418 68.0218 67.4729Z" fill="white"/>
<path d="M77.0655 60.6888V49.9273H80.647V59.8107C80.647 60.5798 80.8364 61.28 81.2152 61.9113C81.594 62.5427 82.0991 63.0478 82.7304 63.4266C83.3617 63.7939 84.0562 63.9776 84.8138 63.9776C85.5829 63.9776 86.2774 63.7939 86.8973 63.4266C87.5286 63.0478 88.0279 62.5427 88.3953 61.9113C88.7741 61.28 88.9635 60.5798 88.9635 59.8107V49.9273H92.5449L92.5621 67.1458H88.9807L88.9635 65.2862C88.378 65.9979 87.6491 66.5603 86.7767 66.9736C85.9043 67.3868 84.9688 67.5934 83.9701 67.5934C82.696 67.5934 81.5366 67.2835 80.492 66.6636C79.4474 66.0438 78.6152 65.2115 77.9953 64.167C77.3755 63.1224 77.0655 61.963 77.0655 60.6888Z" fill="white"/>
<path d="M96.0152 49.9273H99.5967V67.1458H96.0152V49.9273ZM97.8404 47.4306C97.2894 47.4306 96.8302 47.2527 96.4629 46.8969C96.0956 46.541 95.9119 46.0933 95.9119 45.5538C95.9119 45.0258 96.0956 44.5838 96.4629 44.228C96.8302 43.8607 97.2837 43.677 97.8232 43.677C98.3512 43.677 98.7989 43.8607 99.1662 44.228C99.5335 44.5838 99.7172 45.0258 99.7172 45.5538C99.7172 46.0933 99.5335 46.541 99.1662 46.8969C98.8104 47.2527 98.3684 47.4306 97.8404 47.4306Z" fill="white"/>
<g clip-path="url(#clip0_4_8)">
<path fill-rule="evenodd" clip-rule="evenodd" d="M144.463 99.0876L109.532 5.87344L109.531 5.87313C109.405 5.54373 109.035 5.37892 108.706 5.50547L107.035 6.14581C106.706 6.27237 106.542 6.6418 106.668 6.97121L143.077 99.7557C143.102 99.82 143.126 99.8835 143.149 99.9458C143.412 100.649 143.615 101.192 144.342 100.913C145.069 100.634 144.818 99.9932 144.537 99.2767C144.512 99.2142 144.487 99.1511 144.463 99.0876ZM139.166 101.333L94.2779 12.3416L94.2768 12.341C94.1204 12.024 94.25 11.6413 94.567 11.4849L96.1698 10.6913C96.4868 10.5349 96.8691 10.6642 97.026 10.9803L111.398 40.5972L140.484 100.539C140.514 100.599 140.544 100.659 140.574 100.719C140.921 101.407 141.232 102.022 140.533 102.367C140.254 102.506 140.045 102.505 139.875 102.411C139.62 102.271 139.45 101.919 139.253 101.512C139.225 101.454 139.196 101.394 139.166 101.333Z" fill="white"/>
</g>
<path d="M139.102 56.1678L142.277 59.4213C142.723 58.7391 143.352 57.7946 143.956 56.9812C145.005 55.5381 146.868 52.9668 147.918 51.6287C148.652 50.6842 149.203 50.6579 150.043 51.4975C151.014 52.4421 153.323 54.9871 154.871 56.7975C156.419 58.6342 158.623 61.3366 160.381 63.5144L163.267 60.3921C161.247 58.2406 158.57 55.3545 156.812 53.4653C155.238 51.7861 153.218 49.6871 151.46 48.0079C149.413 46.0926 147.865 46.3812 146.317 48.2441C144.507 50.3955 142.46 52.9668 141.28 54.1475C140.466 54.9609 139.889 55.5119 139.102 56.1678Z" fill="white"/>
<path d="M169.511 44.1247L167.019 46.7748C168.934 48.0866 172.24 50.9465 173.604 52.4158L176.281 49.6871C174.733 48.0866 171.322 45.3579 169.511 44.1247ZM166.205 61.599L168.436 65.0624C172.109 64.4327 175.494 62.9896 178.17 61.3891C182.394 58.8441 185.884 55.2233 187.851 51.655L185.831 47.9817C184.152 51.5238 180.741 55.5119 176.254 58.1881C173.709 59.6837 170.325 61.0218 166.205 61.599Z" fill="white"/>
<path d="M209.72 46.3025L207.594 44.702C207.044 44.8856 206.02 45.0168 204.866 45.0168C203.711 45.0168 196.994 45.0168 195.604 45.0168C194.843 45.0168 193.216 44.9381 192.508 44.8332V48.5851C193.085 48.5327 194.528 48.4015 195.604 48.4015C196.732 48.4015 203.423 48.4015 204.525 48.4015C203.921 50.2644 202.321 52.8619 200.589 54.8297C198.123 57.5584 194.082 60.7594 189.832 62.3337L192.56 65.1673C196.627 63.252 200.589 59.9985 203.528 56.6139C205.784 53.9901 207.726 50.4218 208.801 47.9292C209.038 47.3782 209.51 46.5911 209.72 46.3025ZM203.869 54.4361L201.402 56.8762C204.21 59.4213 207.07 62.5436 209.011 65.2461L212.002 62.6485C210.297 60.5495 206.571 56.6401 203.869 54.4361Z" fill="white"/>
<path d="M214.679 53.8852L216.305 57.1911C220.451 55.9579 224.701 53.9901 227.666 52.2322C230.762 50.3693 233.963 47.903 236.351 45.4891L233.517 42.8129C231.812 44.8856 228.821 47.5094 226.145 49.1624C223.206 50.9728 219.375 52.6782 214.679 53.8852ZM225.594 50.8678V61.8089C225.594 62.9634 225.489 64.6163 225.384 65.2461H229.555C229.372 64.5901 229.319 62.9634 229.319 61.8089V49.9757L225.594 50.8678Z" fill="white"/>
<defs>
<clipPath id="clip0_4_8">
<rect width="87.1147" height="69.9953" fill="white" transform="translate(100.41 0.665161) rotate(28.9048)"/>
</clipPath>
</defs>
</svg>
