<svg width="441" height="21" viewBox="0 0 441 21" fill="none" xmlns="http://www.w3.org/2000/svg">
<g clip-path="url(#clip0_10_1185)">
<path fill-rule="evenodd" clip-rule="evenodd" d="M16.622 19.7884L9.59889 1.04715L9.59876 1.04709C9.57341 0.980858 9.49909 0.947721 9.43281 0.973165L9.09699 1.10191C9.03071 1.12735 8.99772 1.20163 9.02307 1.26786L16.3433 19.9227C16.3483 19.9356 16.3531 19.9484 16.3578 19.9609C16.4107 20.1023 16.4516 20.2114 16.5977 20.1554C16.7438 20.0993 16.6933 19.9704 16.6368 19.8264C16.6318 19.8138 16.6269 19.8011 16.622 19.7884ZM15.557 20.2399L6.53201 2.3476L6.5318 2.34749C6.50035 2.28375 6.52641 2.2068 6.59014 2.17536L6.9124 2.0158C6.97613 1.98436 7.05299 2.01036 7.08454 2.0739L9.97415 8.02855L15.8219 20.0801C15.828 20.0923 15.8341 20.1044 15.8401 20.1164C15.9099 20.2547 15.9723 20.3784 15.8319 20.4478C15.7757 20.4757 15.7338 20.4755 15.6996 20.4566C15.6484 20.4283 15.6141 20.3577 15.5745 20.2759C15.5688 20.2641 15.563 20.2521 15.557 20.2399Z" fill="#29005F"/>
</g>
<g clip-path="url(#clip1_10_1185)">
<path fill-rule="evenodd" clip-rule="evenodd" d="M25.589 0.99729L32.6136 19.7379L32.6138 19.738C32.6391 19.8042 32.7134 19.8373 32.7797 19.8119L33.1155 19.6831C33.1818 19.6577 33.2148 19.5834 33.1894 19.5171L25.8676 0.862937C25.8626 0.850011 25.8578 0.837246 25.8532 0.824734C25.8002 0.683318 25.7593 0.574238 25.6132 0.630283C25.4671 0.686352 25.5176 0.815223 25.5742 0.959284C25.5791 0.97185 25.5841 0.984531 25.589 0.99729ZM26.6539 0.545643L35.6804 18.4372L35.6806 18.4373C35.7121 18.501 35.686 18.578 35.6223 18.6094L35.3001 18.769C35.2363 18.8005 35.1595 18.7745 35.1279 18.7109L32.2378 12.7565L26.389 0.705497C26.383 0.693297 26.3768 0.681181 26.3708 0.669173C26.301 0.530918 26.2386 0.407173 26.379 0.337803C26.4352 0.309844 26.4771 0.310057 26.5113 0.328922C26.5626 0.357232 26.5968 0.427894 26.6364 0.509665C26.6421 0.521458 26.6479 0.533481 26.6539 0.545643Z" fill="#29005F"/>
</g>
<g clip-path="url(#clip2_10_1185)">
<path fill-rule="evenodd" clip-rule="evenodd" d="M52.9245 19.7884L45.9014 1.04714L45.9012 1.04708C45.8759 0.980851 45.8016 0.947715 45.7353 0.973159L45.3995 1.1019C45.3332 1.12735 45.3002 1.20163 45.3255 1.26785L52.6458 19.9227C52.6508 19.9356 52.6556 19.9484 52.6602 19.9609C52.7132 20.1023 52.7541 20.2114 52.9002 20.1554C53.0463 20.0993 52.9958 19.9704 52.9393 19.8264C52.9343 19.8138 52.9293 19.8011 52.9245 19.7884ZM51.8595 20.2399L42.8345 2.34759L42.8343 2.34748C42.8028 2.28375 42.8289 2.20679 42.8926 2.17535L43.2149 2.01579C43.2786 1.98435 43.3555 2.01035 43.387 2.07389L46.2766 8.02854L52.1244 20.0801C52.1305 20.0923 52.1366 20.1044 52.1426 20.1164C52.2124 20.2547 52.2748 20.3784 52.1344 20.4478C52.0782 20.4757 52.0363 20.4755 52.0021 20.4566C51.9508 20.4283 51.9166 20.3577 51.877 20.2759C51.8713 20.2641 51.8655 20.2521 51.8595 20.2399Z" fill="#29005F"/>
</g>
<g clip-path="url(#clip3_10_1185)">
<path fill-rule="evenodd" clip-rule="evenodd" d="M60.8254 0.997296L67.85 19.7379L67.8502 19.738C67.8755 19.8042 67.9498 19.8373 68.0161 19.8119L68.3519 19.6831C68.4182 19.6577 68.4512 19.5834 68.4258 19.5172L61.104 0.862943C61.099 0.850017 61.0943 0.837252 61.0896 0.824742C61.0366 0.683324 60.9957 0.574243 60.8496 0.630289C60.7035 0.686357 60.7541 0.815228 60.8106 0.95929C60.8155 0.971856 60.8205 0.984538 60.8254 0.997296ZM61.8903 0.545649L70.9168 18.4372L70.917 18.4373C70.9485 18.501 70.9224 18.578 70.8587 18.6094L70.5365 18.769C70.4727 18.8005 70.3959 18.7745 70.3643 18.7109L67.4742 12.7565L61.6254 0.705503C61.6194 0.693303 61.6132 0.681187 61.6072 0.669179C61.5374 0.530924 61.475 0.407179 61.6154 0.337809C61.6716 0.309851 61.7135 0.310063 61.7477 0.328928C61.799 0.357238 61.8332 0.4279 61.8728 0.50967C61.8785 0.521463 61.8843 0.533487 61.8903 0.545649Z" fill="#29005F"/>
</g>
<g clip-path="url(#clip4_10_1185)">
<path fill-rule="evenodd" clip-rule="evenodd" d="M89.227 19.7884L82.2039 1.04715L82.2038 1.04709C82.1784 0.980858 82.1041 0.947721 82.0378 0.973165L81.702 1.10191C81.6357 1.12735 81.6027 1.20163 81.6281 1.26786L88.9483 19.9227C88.9533 19.9356 88.9581 19.9484 88.9628 19.9609C89.0157 20.1023 89.0566 20.2114 89.2027 20.1554C89.3488 20.0993 89.2983 19.9704 89.2418 19.8264C89.2368 19.8138 89.2319 19.8011 89.227 19.7884ZM88.162 20.2399L79.137 2.3476L79.1368 2.34749C79.1054 2.28375 79.1314 2.2068 79.1951 2.17536L79.5174 2.0158C79.5811 1.98436 79.658 2.01036 79.6895 2.0739L82.5791 8.02855L88.4269 20.0801C88.433 20.0923 88.4391 20.1044 88.4451 20.1164C88.5149 20.2547 88.5773 20.3784 88.4369 20.4478C88.3807 20.4757 88.3388 20.4755 88.3046 20.4566C88.2533 20.4283 88.2191 20.3577 88.1795 20.2759C88.1738 20.2641 88.168 20.2521 88.162 20.2399Z" fill="#29005F"/>
</g>
<g clip-path="url(#clip5_10_1185)">
<path fill-rule="evenodd" clip-rule="evenodd" d="M98.194 0.997291L105.219 19.7379L105.219 19.738C105.244 19.8042 105.318 19.8373 105.385 19.8119L105.721 19.6831C105.787 19.6577 105.82 19.5834 105.794 19.5172L98.4726 0.862937C98.4676 0.850012 98.4628 0.837248 98.4582 0.824737C98.4052 0.683318 98.3643 0.574238 98.2182 0.630284C98.0721 0.686353 98.1226 0.815221 98.1792 0.959282C98.1841 0.971848 98.1891 0.984531 98.194 0.997291ZM99.2589 0.545643L108.285 18.4372L108.286 18.4373C108.317 18.501 108.291 18.578 108.227 18.6094L107.905 18.769C107.841 18.8005 107.764 18.7745 107.733 18.7109L104.843 12.7565L98.994 0.705496C98.988 0.693297 98.9818 0.68118 98.9758 0.669172C98.906 0.530917 98.8436 0.407173 98.984 0.337803C99.0402 0.309844 99.0821 0.310056 99.1163 0.328921C99.1676 0.357232 99.2018 0.427895 99.2414 0.509666C99.2471 0.521458 99.2529 0.533482 99.2589 0.545643Z" fill="#29005F"/>
</g>
<g clip-path="url(#clip6_10_1185)">
<path fill-rule="evenodd" clip-rule="evenodd" d="M125.529 19.7884L118.506 1.04716L118.506 1.0471C118.481 0.98087 118.407 0.947734 118.34 0.973178L118.004 1.10192C117.938 1.12737 117.905 1.20164 117.931 1.26787L125.251 19.9227C125.256 19.9356 125.261 19.9484 125.265 19.9609C125.318 20.1023 125.359 20.2114 125.505 20.1554C125.651 20.0993 125.601 19.9704 125.544 19.8264C125.539 19.8138 125.534 19.8011 125.529 19.7884ZM124.464 20.2399L115.439 2.34761L115.439 2.3475C115.408 2.28377 115.434 2.20681 115.498 2.17537L115.82 2.01581C115.884 1.98437 115.96 2.01037 115.992 2.07391L118.882 8.02856L124.729 20.0801C124.735 20.0923 124.742 20.1044 124.748 20.1164C124.817 20.2547 124.88 20.3784 124.739 20.4478C124.683 20.4757 124.641 20.4755 124.607 20.4567C124.556 20.4283 124.522 20.3577 124.482 20.2759C124.476 20.2641 124.47 20.2521 124.464 20.2399Z" fill="#29005F"/>
</g>
<g clip-path="url(#clip7_10_1185)">
<path fill-rule="evenodd" clip-rule="evenodd" d="M134.496 0.997291L141.521 19.7379L141.521 19.738C141.547 19.8042 141.621 19.8373 141.687 19.8119L142.023 19.6831C142.089 19.6577 142.122 19.5834 142.097 19.5172L134.775 0.862937C134.77 0.850012 134.765 0.837247 134.761 0.824736C134.708 0.683318 134.667 0.574237 134.521 0.630283C134.375 0.686352 134.425 0.815222 134.482 0.959285C134.487 0.971851 134.492 0.984532 134.496 0.997291ZM135.561 0.545643L144.588 18.4372L144.588 18.4373C144.62 18.501 144.594 18.578 144.53 18.6094L144.208 18.769C144.144 18.8005 144.067 18.7745 144.035 18.7109L141.145 12.7565L135.296 0.705496C135.29 0.693297 135.284 0.68118 135.278 0.669172C135.209 0.530917 135.146 0.407173 135.286 0.337803C135.343 0.309844 135.385 0.310056 135.419 0.328921C135.47 0.357232 135.504 0.427895 135.544 0.509666C135.55 0.521458 135.555 0.533482 135.561 0.545643Z" fill="#29005F"/>
</g>
<g clip-path="url(#clip8_10_1185)">
<path fill-rule="evenodd" clip-rule="evenodd" d="M161.832 19.7884L154.809 1.04716L154.809 1.04709C154.783 0.980864 154.709 0.947728 154.643 0.973172L154.307 1.10192C154.241 1.12736 154.208 1.20164 154.233 1.26787L161.553 19.9227C161.558 19.9356 161.563 19.9484 161.568 19.9609C161.621 20.1023 161.662 20.2114 161.808 20.1554C161.954 20.0993 161.903 19.9704 161.847 19.8264C161.842 19.8138 161.837 19.8011 161.832 19.7884ZM160.767 20.2399L151.742 2.3476L151.742 2.34749C151.71 2.28376 151.736 2.2068 151.8 2.17536L152.122 2.0158C152.186 1.98436 152.263 2.01037 152.295 2.0739L155.184 8.02856L161.032 20.0801C161.038 20.0923 161.044 20.1044 161.05 20.1164C161.12 20.2547 161.182 20.3784 161.042 20.4478C160.986 20.4757 160.944 20.4755 160.91 20.4566C160.858 20.4283 160.824 20.3577 160.785 20.2759C160.779 20.2641 160.773 20.2521 160.767 20.2399Z" fill="#29005F"/>
</g>
<g clip-path="url(#clip9_10_1185)">
<path fill-rule="evenodd" clip-rule="evenodd" d="M170.799 0.997317L177.824 19.7379L177.824 19.738C177.849 19.8042 177.924 19.8374 177.99 19.8119L178.326 19.6831C178.392 19.6577 178.425 19.5834 178.399 19.5172L171.078 0.862963C171.073 0.850038 171.068 0.837273 171.063 0.824761C171.01 0.683345 170.969 0.574265 170.823 0.63031C170.677 0.686379 170.728 0.81525 170.784 0.959311C170.789 0.971877 170.794 0.984558 170.799 0.997317ZM171.864 0.54567L180.89 18.4372L180.891 18.4373C180.922 18.5011 180.896 18.578 180.832 18.6095L180.51 18.769C180.446 18.8005 180.369 18.7745 180.338 18.711L177.448 12.7566L171.599 0.705523C171.593 0.693323 171.587 0.681207 171.581 0.669199C171.511 0.530944 171.449 0.407199 171.589 0.337829C171.645 0.309871 171.687 0.310083 171.721 0.328948C171.773 0.357259 171.807 0.427921 171.846 0.509693C171.852 0.521485 171.858 0.533509 171.864 0.54567Z" fill="#29005F"/>
</g>
<g clip-path="url(#clip10_10_1185)">
<path fill-rule="evenodd" clip-rule="evenodd" d="M198.134 19.7884L191.111 1.04716L191.111 1.04709C191.086 0.980864 191.012 0.947728 190.945 0.973172L190.61 1.10192C190.543 1.12736 190.51 1.20164 190.536 1.26787L197.856 19.9227C197.861 19.9356 197.866 19.9484 197.87 19.9609C197.923 20.1023 197.964 20.2114 198.11 20.1554C198.256 20.0993 198.206 19.9704 198.149 19.8264C198.144 19.8138 198.139 19.8011 198.134 19.7884ZM197.069 20.2399L188.045 2.3476L188.044 2.34749C188.013 2.28376 188.039 2.2068 188.103 2.17536L188.425 2.0158C188.489 1.98436 188.566 2.01037 188.597 2.0739L191.487 8.02856L197.334 20.0801C197.34 20.0923 197.347 20.1044 197.353 20.1164C197.422 20.2547 197.485 20.3784 197.344 20.4478C197.288 20.4757 197.246 20.4755 197.212 20.4566C197.161 20.4283 197.127 20.3577 197.087 20.2759C197.081 20.2641 197.075 20.2521 197.069 20.2399Z" fill="#29005F"/>
</g>
<g clip-path="url(#clip11_10_1185)">
<path fill-rule="evenodd" clip-rule="evenodd" d="M206.035 0.99729L213.06 19.7379L213.06 19.738C213.086 19.8042 213.16 19.8373 213.226 19.8119L213.562 19.6831C213.628 19.6577 213.661 19.5834 213.636 19.5171L206.314 0.862937C206.309 0.850011 206.304 0.837246 206.3 0.824734C206.247 0.683318 206.206 0.574238 206.06 0.630283C205.914 0.686352 205.964 0.815223 206.021 0.959284C206.026 0.97185 206.031 0.984531 206.035 0.99729ZM207.1 0.545643L216.127 18.4372L216.127 18.4373C216.159 18.501 216.132 18.578 216.069 18.6094L215.746 18.769C215.683 18.8005 215.606 18.7745 215.574 18.7109L212.684 12.7565L206.835 0.705497C206.829 0.693297 206.823 0.681181 206.817 0.669173C206.747 0.530918 206.685 0.407173 206.825 0.337803C206.882 0.309844 206.924 0.310057 206.958 0.328922C207.009 0.357232 207.043 0.427894 207.083 0.509665C207.089 0.521458 207.094 0.533481 207.1 0.545643Z" fill="#29005F"/>
</g>
<g clip-path="url(#clip12_10_1185)">
<path fill-rule="evenodd" clip-rule="evenodd" d="M234.437 19.7884L227.414 1.04716L227.414 1.04709C227.388 0.980864 227.314 0.947728 227.248 0.973172L226.912 1.10192C226.846 1.12736 226.813 1.20164 226.838 1.26787L234.158 19.9227C234.163 19.9356 234.168 19.9484 234.173 19.9609C234.226 20.1023 234.267 20.2114 234.413 20.1554C234.559 20.0993 234.508 19.9704 234.452 19.8264C234.447 19.8138 234.442 19.8011 234.437 19.7884ZM233.372 20.2399L224.347 2.3476L224.347 2.34749C224.315 2.28376 224.341 2.2068 224.405 2.17536L224.727 2.0158C224.791 1.98436 224.868 2.01037 224.9 2.0739L227.789 8.02856L233.637 20.0801C233.643 20.0923 233.649 20.1044 233.655 20.1164C233.725 20.2547 233.787 20.3784 233.647 20.4478C233.591 20.4757 233.549 20.4755 233.515 20.4566C233.463 20.4283 233.429 20.3577 233.39 20.2759C233.384 20.2641 233.378 20.2521 233.372 20.2399Z" fill="#29005F"/>
</g>
<g clip-path="url(#clip13_10_1185)">
<path fill-rule="evenodd" clip-rule="evenodd" d="M243.404 0.997317L250.429 19.7379L250.429 19.738C250.454 19.8042 250.528 19.8374 250.595 19.8119L250.931 19.6831C250.997 19.6577 251.03 19.5834 251.004 19.5172L243.683 0.862963C243.678 0.850038 243.673 0.837273 243.668 0.824761C243.615 0.683345 243.574 0.574265 243.428 0.63031C243.282 0.686379 243.333 0.81525 243.389 0.959311C243.394 0.971877 243.399 0.984558 243.404 0.997317ZM244.469 0.54567L253.495 18.4372L253.496 18.4373C253.527 18.5011 253.501 18.578 253.437 18.6095L253.115 18.769C253.051 18.8005 252.974 18.7745 252.943 18.711L250.053 12.7566L244.204 0.705523C244.198 0.693323 244.192 0.681207 244.186 0.669199C244.116 0.530944 244.054 0.407199 244.194 0.337829C244.25 0.309871 244.292 0.310083 244.326 0.328948C244.378 0.357259 244.412 0.427921 244.451 0.509693C244.457 0.521485 244.463 0.533509 244.469 0.54567Z" fill="#29005F"/>
</g>
<g clip-path="url(#clip14_10_1185)">
<path fill-rule="evenodd" clip-rule="evenodd" d="M270.739 19.7884L263.716 1.04716L263.716 1.04709C263.691 0.980865 263.617 0.947729 263.55 0.973173L263.214 1.10192C263.148 1.12736 263.115 1.20164 263.141 1.26787L270.461 19.9227C270.466 19.9356 270.471 19.9484 270.475 19.9609C270.528 20.1023 270.569 20.2114 270.715 20.1554C270.861 20.0993 270.811 19.9704 270.754 19.8264C270.749 19.8138 270.744 19.8011 270.739 19.7884ZM269.674 20.2399L260.649 2.3476L260.649 2.34749C260.618 2.28376 260.644 2.2068 260.708 2.17536L261.03 2.0158C261.094 1.98436 261.17 2.01037 261.202 2.0739L264.092 8.02856L269.939 20.0801C269.945 20.0923 269.952 20.1044 269.958 20.1164C270.027 20.2547 270.09 20.3784 269.949 20.4478C269.893 20.4757 269.851 20.4755 269.817 20.4566C269.766 20.4283 269.732 20.3577 269.692 20.2759C269.686 20.2641 269.68 20.2521 269.674 20.2399Z" fill="#29005F"/>
</g>
<g clip-path="url(#clip15_10_1185)">
<path fill-rule="evenodd" clip-rule="evenodd" d="M279.706 0.997291L286.731 19.7379L286.731 19.738C286.757 19.8042 286.831 19.8373 286.897 19.8119L287.233 19.6831C287.299 19.6577 287.332 19.5834 287.307 19.5172L279.985 0.862937C279.98 0.850012 279.975 0.837247 279.971 0.824736C279.918 0.683318 279.877 0.574237 279.731 0.630283C279.585 0.686352 279.635 0.815222 279.692 0.959285C279.697 0.971851 279.702 0.984532 279.706 0.997291ZM280.771 0.545642L289.798 18.4372L289.798 18.4373C289.83 18.501 289.804 18.578 289.74 18.6094L289.418 18.769C289.354 18.8005 289.277 18.7745 289.245 18.7109L286.355 12.7565L280.507 0.705496C280.5 0.693297 280.494 0.68118 280.488 0.669172C280.419 0.530917 280.356 0.407173 280.497 0.337803C280.553 0.309844 280.595 0.310056 280.629 0.328921C280.68 0.357231 280.714 0.427893 280.754 0.509664C280.76 0.521457 280.765 0.53348 280.771 0.545642Z" fill="#29005F"/>
</g>
<g clip-path="url(#clip16_10_1185)">
<path fill-rule="evenodd" clip-rule="evenodd" d="M307.042 19.7884L300.019 1.04714L300.019 1.04708C299.993 0.98085 299.919 0.947714 299.853 0.973158L299.517 1.1019C299.451 1.12735 299.418 1.20162 299.443 1.26785L306.763 19.9227C306.768 19.9356 306.773 19.9484 306.778 19.9609C306.831 20.1023 306.872 20.2114 307.018 20.1554C307.164 20.0993 307.113 19.9704 307.057 19.8264C307.052 19.8138 307.047 19.8011 307.042 19.7884ZM305.977 20.2399L296.952 2.34759L296.952 2.34748C296.92 2.28375 296.946 2.20679 297.01 2.17535L297.332 2.01579C297.396 1.98435 297.473 2.01035 297.505 2.07389L300.394 8.02854L306.242 20.0801C306.248 20.0923 306.254 20.1044 306.26 20.1164C306.33 20.2547 306.392 20.3784 306.252 20.4478C306.196 20.4757 306.154 20.4755 306.12 20.4566C306.068 20.4283 306.034 20.3576 305.995 20.2759C305.989 20.2641 305.983 20.2521 305.977 20.2399Z" fill="#29005F"/>
</g>
<g clip-path="url(#clip17_10_1185)">
<path fill-rule="evenodd" clip-rule="evenodd" d="M316.009 0.997291L323.034 19.7379L323.034 19.738C323.059 19.8042 323.134 19.8373 323.2 19.8119L323.536 19.6831C323.602 19.6577 323.635 19.5834 323.61 19.5172L316.288 0.862937C316.283 0.850012 316.278 0.837247 316.273 0.824736C316.22 0.683318 316.179 0.574237 316.033 0.630283C315.887 0.686352 315.938 0.815222 315.994 0.959285C315.999 0.971851 316.004 0.984532 316.009 0.997291ZM317.074 0.545642L326.1 18.4372L326.101 18.4373C326.132 18.501 326.106 18.578 326.042 18.6094L325.72 18.769C325.656 18.8005 325.58 18.7745 325.548 18.7109L322.658 12.7565L316.809 0.705496C316.803 0.693297 316.797 0.68118 316.791 0.669172C316.721 0.530917 316.659 0.407173 316.799 0.337803C316.855 0.309844 316.897 0.310056 316.931 0.328921C316.983 0.357231 317.017 0.427893 317.056 0.509664C317.062 0.521457 317.068 0.53348 317.074 0.545642Z" fill="#29005F"/>
</g>
<g clip-path="url(#clip18_10_1185)">
<path fill-rule="evenodd" clip-rule="evenodd" d="M343.345 19.7884L336.321 1.04714L336.321 1.04708C336.296 0.980851 336.222 0.947715 336.155 0.973159L335.82 1.1019C335.753 1.12735 335.72 1.20163 335.746 1.26785L343.066 19.9227C343.071 19.9356 343.076 19.9484 343.08 19.9609C343.133 20.1023 343.174 20.2114 343.32 20.1554C343.466 20.0993 343.416 19.9704 343.359 19.8264C343.354 19.8138 343.349 19.8011 343.345 19.7884ZM342.28 20.2399L333.255 2.34759L333.254 2.34748C333.223 2.28375 333.249 2.20679 333.313 2.17535L333.635 2.01579C333.699 1.98435 333.776 2.01035 333.807 2.07389L336.697 8.02854L342.545 20.0801C342.551 20.0923 342.557 20.1044 342.563 20.1164C342.632 20.2547 342.695 20.3784 342.555 20.4478C342.498 20.4757 342.456 20.4755 342.422 20.4566C342.371 20.4283 342.337 20.3577 342.297 20.2759C342.291 20.2641 342.286 20.2521 342.28 20.2399Z" fill="#29005F"/>
</g>
<g clip-path="url(#clip19_10_1185)">
<path fill-rule="evenodd" clip-rule="evenodd" d="M352.312 0.99729L359.336 19.7379L359.336 19.738C359.362 19.8042 359.436 19.8373 359.502 19.8119L359.838 19.6831C359.904 19.6577 359.937 19.5834 359.912 19.5171L352.59 0.862937C352.585 0.850011 352.58 0.837246 352.576 0.824735C352.523 0.683318 352.482 0.574236 352.336 0.630282C352.19 0.686351 352.24 0.815221 352.297 0.959284C352.302 0.97185 352.307 0.984531 352.312 0.99729ZM353.377 0.545642L362.403 18.4372L362.403 18.4373C362.435 18.501 362.409 18.578 362.345 18.6094L362.023 18.769C361.959 18.8005 361.882 18.7745 361.851 18.7109L358.96 12.7565L353.112 0.705496C353.106 0.693297 353.099 0.68118 353.093 0.669172C353.024 0.530917 352.961 0.407173 353.102 0.337803C353.158 0.309844 353.2 0.310056 353.234 0.328921C353.285 0.357231 353.319 0.427893 353.359 0.509664C353.365 0.521457 353.371 0.53348 353.377 0.545642Z" fill="#29005F"/>
</g>
<g clip-path="url(#clip20_10_1185)">
<path fill-rule="evenodd" clip-rule="evenodd" d="M379.647 19.7884L372.624 1.04714L372.624 1.04708C372.599 0.98085 372.524 0.947714 372.458 0.973158L372.122 1.1019C372.056 1.12735 372.023 1.20162 372.048 1.26785L379.368 19.9227C379.373 19.9356 379.378 19.9484 379.383 19.9609C379.436 20.1023 379.477 20.2114 379.623 20.1554C379.769 20.0993 379.718 19.9704 379.662 19.8264C379.657 19.8138 379.652 19.8011 379.647 19.7884ZM378.582 20.2399L369.557 2.34759L369.557 2.34748C369.525 2.28375 369.552 2.20679 369.615 2.17535L369.938 2.01579C370.001 1.98435 370.078 2.01035 370.11 2.07389L372.999 8.02854L378.847 20.0801C378.853 20.0923 378.859 20.1044 378.865 20.1164C378.935 20.2547 378.997 20.3784 378.857 20.4478C378.801 20.4757 378.759 20.4755 378.725 20.4566C378.673 20.4283 378.639 20.3577 378.6 20.2759C378.594 20.2641 378.588 20.2521 378.582 20.2399Z" fill="#29005F"/>
</g>
<g clip-path="url(#clip21_10_1185)">
<path fill-rule="evenodd" clip-rule="evenodd" d="M388.614 0.99729L395.639 19.7379L395.639 19.738C395.664 19.8042 395.739 19.8373 395.805 19.8119L396.141 19.6831C396.207 19.6577 396.24 19.5834 396.215 19.5171L388.893 0.862937C388.888 0.850011 388.883 0.837247 388.878 0.824736C388.825 0.683318 388.784 0.574237 388.638 0.630282C388.492 0.686351 388.543 0.815221 388.599 0.959284C388.604 0.97185 388.609 0.984531 388.614 0.99729ZM389.679 0.545643L398.706 18.4372L398.706 18.4373C398.737 18.501 398.711 18.578 398.647 18.6094L398.325 18.769C398.261 18.8005 398.185 18.7745 398.153 18.7109L395.263 12.7565L389.414 0.705496C389.408 0.693297 389.402 0.68118 389.396 0.669172C389.326 0.530917 389.264 0.407173 389.404 0.337803C389.46 0.309844 389.502 0.310056 389.536 0.328921C389.588 0.357232 389.622 0.427895 389.662 0.509666C389.667 0.521458 389.673 0.533482 389.679 0.545643Z" fill="#29005F"/>
</g>
<g clip-path="url(#clip22_10_1185)">
<path fill-rule="evenodd" clip-rule="evenodd" d="M415.95 19.7884L408.926 1.04714L408.926 1.04708C408.901 0.98085 408.827 0.947714 408.76 0.973158L408.425 1.1019C408.358 1.12735 408.325 1.20162 408.351 1.26785L415.671 19.9227C415.676 19.9356 415.681 19.9484 415.685 19.9609C415.738 20.1023 415.779 20.2114 415.925 20.1554C416.071 20.0993 416.021 19.9704 415.964 19.8264C415.959 19.8138 415.954 19.8011 415.95 19.7884ZM414.885 20.2399L405.86 2.34759L405.859 2.34748C405.828 2.28375 405.854 2.20679 405.918 2.17535L406.24 2.01579C406.304 1.98435 406.381 2.01035 406.412 2.07389L409.302 8.02854L415.15 20.0801C415.156 20.0923 415.162 20.1044 415.168 20.1164C415.238 20.2547 415.3 20.3784 415.16 20.4478C415.103 20.4757 415.061 20.4755 415.027 20.4566C414.976 20.4283 414.942 20.3577 414.902 20.2759C414.896 20.2641 414.891 20.2521 414.885 20.2399Z" fill="#29005F"/>
</g>
<g clip-path="url(#clip23_10_1185)">
<path fill-rule="evenodd" clip-rule="evenodd" d="M424.917 0.997412L431.941 19.738L431.941 19.7381C431.967 19.8043 432.041 19.8375 432.107 19.812L432.443 19.6832C432.509 19.6578 432.542 19.5835 432.517 19.5173L425.195 0.863059C425.19 0.850133 425.185 0.837369 425.181 0.824858C425.128 0.68344 425.087 0.574359 424.941 0.630404C424.795 0.686473 424.845 0.815343 424.902 0.959406C424.907 0.971972 424.912 0.984653 424.917 0.997412ZM425.982 0.545765L435.008 18.4373L435.008 18.4374C435.04 18.5012 435.014 18.5781 434.95 18.6096L434.628 18.7691C434.564 18.8006 434.487 18.7746 434.456 18.7111L431.565 12.7566L425.717 0.705619C425.711 0.693419 425.704 0.681302 425.698 0.669295C425.629 0.53104 425.566 0.407295 425.707 0.337925C425.763 0.309966 425.805 0.310178 425.839 0.329043C425.89 0.357354 425.924 0.428017 425.964 0.509788C425.97 0.52158 425.976 0.533604 425.982 0.545765Z" fill="#29005F"/>
</g>
<defs>
<clipPath id="clip0_10_1185">
<rect width="17.5149" height="14.0729" fill="white" transform="translate(7.76489) rotate(28.9048)"/>
</clipPath>
<clipPath id="clip1_10_1185">
<rect width="17.5149" height="14.0729" fill="white" transform="translate(34.4477 20.7849) rotate(-151.1)"/>
</clipPath>
<clipPath id="clip2_10_1185">
<rect width="17.5149" height="14.0729" fill="white" transform="translate(44.0674) rotate(28.9048)"/>
</clipPath>
<clipPath id="clip3_10_1185">
<rect width="17.5149" height="14.0729" fill="white" transform="translate(70.7502 20.7849) rotate(-151.1)"/>
</clipPath>
<clipPath id="clip4_10_1185">
<rect width="17.5149" height="14.0729" fill="white" transform="translate(80.3699) rotate(28.9048)"/>
</clipPath>
<clipPath id="clip5_10_1185">
<rect width="17.5149" height="14.0729" fill="white" transform="translate(107.053 20.7849) rotate(-151.1)"/>
</clipPath>
<clipPath id="clip6_10_1185">
<rect width="17.5149" height="14.0729" fill="white" transform="translate(116.672) rotate(28.9048)"/>
</clipPath>
<clipPath id="clip7_10_1185">
<rect width="17.5149" height="14.0729" fill="white" transform="translate(143.355 20.7849) rotate(-151.1)"/>
</clipPath>
<clipPath id="clip8_10_1185">
<rect width="17.5149" height="14.0729" fill="white" transform="translate(152.975) rotate(28.9048)"/>
</clipPath>
<clipPath id="clip9_10_1185">
<rect width="17.5149" height="14.0729" fill="white" transform="translate(179.658 20.7849) rotate(-151.1)"/>
</clipPath>
<clipPath id="clip10_10_1185">
<rect width="17.5149" height="14.0729" fill="white" transform="translate(189.277) rotate(28.9048)"/>
</clipPath>
<clipPath id="clip11_10_1185">
<rect width="17.5149" height="14.0729" fill="white" transform="translate(215.96 20.7849) rotate(-151.1)"/>
</clipPath>
<clipPath id="clip12_10_1185">
<rect width="17.5149" height="14.0729" fill="white" transform="translate(225.58) rotate(28.9048)"/>
</clipPath>
<clipPath id="clip13_10_1185">
<rect width="17.5149" height="14.0729" fill="white" transform="translate(252.263 20.7849) rotate(-151.1)"/>
</clipPath>
<clipPath id="clip14_10_1185">
<rect width="17.5149" height="14.0729" fill="white" transform="translate(261.882) rotate(28.9048)"/>
</clipPath>
<clipPath id="clip15_10_1185">
<rect width="17.5149" height="14.0729" fill="white" transform="translate(288.565 20.7849) rotate(-151.1)"/>
</clipPath>
<clipPath id="clip16_10_1185">
<rect width="17.5149" height="14.0729" fill="white" transform="translate(298.185) rotate(28.9048)"/>
</clipPath>
<clipPath id="clip17_10_1185">
<rect width="17.5149" height="14.0729" fill="white" transform="translate(324.868 20.7849) rotate(-151.1)"/>
</clipPath>
<clipPath id="clip18_10_1185">
<rect width="17.5149" height="14.0729" fill="white" transform="translate(334.487) rotate(28.9048)"/>
</clipPath>
<clipPath id="clip19_10_1185">
<rect width="17.5149" height="14.0729" fill="white" transform="translate(361.17 20.7849) rotate(-151.1)"/>
</clipPath>
<clipPath id="clip20_10_1185">
<rect width="17.5149" height="14.0729" fill="white" transform="translate(370.79) rotate(28.9048)"/>
</clipPath>
<clipPath id="clip21_10_1185">
<rect width="17.5149" height="14.0729" fill="white" transform="translate(397.473 20.7849) rotate(-151.1)"/>
</clipPath>
<clipPath id="clip22_10_1185">
<rect width="17.5149" height="14.0729" fill="white" transform="translate(407.092) rotate(28.9048)"/>
</clipPath>
<clipPath id="clip23_10_1185">
<rect width="17.5149" height="14.0729" fill="white" transform="translate(433.775 20.785) rotate(-151.1)"/>
</clipPath>
</defs>
</svg>
