<svg width="42" height="42" viewBox="0 0 42 42" fill="none" xmlns="http://www.w3.org/2000/svg">
<path d="M6.4794 30.0394C9.60546 30.2154 12.3391 29.4846 15.005 27.5494C12.312 27.0893 10.4445 25.8578 9.42954 23.3137C10.2144 23.2054 10.9046 23.4084 11.7166 23.0836C9.06416 21.9198 7.3455 20.1741 7.27784 17.1563C8.11687 17.2239 8.75291 17.7788 9.75433 17.6976C7.31844 15.3158 6.57413 12.7175 8.10333 9.56441C10.6475 12.4875 13.6247 14.4768 17.265 15.4106C17.468 15.4647 17.6574 15.5188 17.8604 15.5594C18.7942 15.7759 19.9039 16.2361 20.4723 16.1684C21.4466 16.0466 20.4723 14.9234 20.7159 13.4618C21.4872 8.91484 26.4943 6.84433 30.2023 9.51028C31.2849 10.2952 32.1375 10.2816 33.2066 9.808C33.7614 9.56441 34.3298 9.32082 34.9929 9.03664C34.844 10.3358 33.8426 11.053 33.0442 12.0138C33.9509 12.2168 34.6816 11.9597 35.5207 11.6891C35.2365 12.6228 34.5328 13.1506 33.8967 13.6648C33.2336 14.1926 32.9765 14.7475 32.9494 15.6135C32.5435 28.7268 17.6439 38.8628 7.45377 30.7973C6.46588 30.0124 7.42669 30.7973 6.4794 30.0394Z" fill="#29005F"/>
</svg>
